<?xml version="1.0" standalone="no"?>
<!DOCTYPE svg PUBLIC "-//W3C//DTD SVG 20010904//EN"
 "http://www.w3.org/TR/2001/REC-SVG-20010904/DTD/svg10.dtd">
<svg version="1.0" xmlns="http://www.w3.org/2000/svg"
 width="260.000000pt" height="260.000000pt" viewBox="0 0 260.000000 260.000000"
 preserveAspectRatio="xMidYMid meet">
<metadata>
Created by potrace 1.11, written by Peter Selinger 2001-2013
</metadata>
<g transform="translate(0.000000,260.000000) scale(0.100000,-0.100000)"
fill="#000000" stroke="none">
<path d="M582 2043 c-6 -3 -10 -8 -8 -11 4 -6 88 -356 188 -777 17 -71 48
-204 70 -295 22 -91 42 -174 44 -185 2 -11 14 -63 27 -115 l23 -95 184 0 184
0 23 95 c12 52 25 107 28 123 3 15 30 138 60 273 30 135 57 258 60 273 7 36
43 238 50 281 3 19 7 36 9 37 1 2 8 -43 14 -100 7 -56 26 -174 42 -262 17 -88
33 -173 36 -190 3 -16 11 -61 19 -100 8 -38 16 -81 19 -95 2 -14 18 -95 35
-180 17 -85 31 -155 31 -156 0 0 82 -1 183 -1 l184 -1 48 189 c26 103 46 190
45 191 -2 2 2 12 8 24 6 11 13 32 16 45 2 13 32 132 66 263 34 132 63 247 65
255 2 9 15 59 28 111 14 52 42 158 62 235 20 77 38 148 41 157 5 16 -9 17
-168 15 l-173 -2 -12 -55 c-12 -53 -19 -93 -29 -155 -3 -16 -9 -46 -14 -65 -5
-19 -12 -50 -15 -68 -3 -18 -12 -64 -20 -102 -8 -38 -17 -84 -20 -102 -3 -18
-8 -40 -10 -48 -2 -8 -7 -33 -10 -55 -5 -40 -9 -63 -20 -115 -2 -14 -7 -41
-11 -60 -3 -19 -10 -60 -15 -90 -5 -30 -12 -75 -16 -99 -3 -24 -9 -55 -13 -70
l-8 -26 -2 30 c-1 17 -3 39 -6 50 -2 11 -6 39 -9 62 -8 73 -73 436 -135 753
-10 52 -21 109 -23 125 -3 17 -9 44 -12 62 l-7 32 -174 0 c-120 -1 -176 -4
-182 -12 -8 -10 -21 -66 -38 -157 -9 -50 -14 -77 -44 -215 -12 -55 -24 -111
-26 -125 -3 -14 -16 -77 -29 -140 -13 -63 -27 -131 -30 -150 -3 -19 -10 -53
-15 -75 -5 -22 -11 -58 -14 -80 -4 -22 -12 -69 -18 -105 l-11 -65 -38 220
c-45 258 -35 207 -94 525 -45 245 -53 287 -60 320 -2 8 -4 25 -4 37 -1 22 -2
22 -173 22 -95 -1 -179 -3 -186 -6z"/>
<path d="M305 1959 c-62 -20 -96 -65 -100 -137 -7 -99 73 -171 176 -159 61 7
82 19 113 60 52 68 31 179 -41 220 -38 22 -107 29 -148 16z"/>
<path d="M233 1542 l-23 -3 0 -489 0 -489 153 2 152 2 0 483 c0 266 -2 487 -5
490 -5 7 -235 10 -277 4z"/>
</g>
</svg>
